<?xml version="1.0" encoding="UTF-8" standalone="no"?>
<svg
   xmlns:dc="http://purl.org/dc/elements/1.1/"
   xmlns:cc="http://creativecommons.org/ns#"
   xmlns:rdf="http://www.w3.org/1999/02/22-rdf-syntax-ns#"
   xmlns:svg="http://www.w3.org/2000/svg"
   xmlns="http://www.w3.org/2000/svg"
   xmlns:sodipodi="http://sodipodi.sourceforge.net/DTD/sodipodi-0.dtd"
   xmlns:inkscape="http://www.inkscape.org/namespaces/inkscape"
   width="83px"
   height="80px"
   viewBox="0 0 83 80"
   version="1.1"
   id="svg7946"
   sodipodi:docname="device-printer.svg"
   inkscape:version="0.92.3 (2405546, 2018-03-11)">
  <metadata
     id="metadata7952">
    <rdf:RDF>
      <cc:Work
         rdf:about="">
        <dc:format>image/svg+xml</dc:format>
        <dc:type
           rdf:resource="http://purl.org/dc/dcmitype/StillImage" />
      </cc:Work>
    </rdf:RDF>
  </metadata>
  <defs
     id="defs7950" />
  <sodipodi:namedview
     pagecolor="#ffffff"
     bordercolor="#666666"
     borderopacity="1"
     objecttolerance="10"
     gridtolerance="10"
     guidetolerance="10"
     inkscape:pageopacity="0"
     inkscape:pageshadow="2"
     inkscape:window-width="1920"
     inkscape:window-height="1022"
     id="namedview7948"
     showgrid="false"
     inkscape:zoom="8.2808168"
     inkscape:cx="29.175388"
     inkscape:cy="40"
     inkscape:window-x="0"
     inkscape:window-y="0"
     inkscape:window-maximized="1"
     inkscape:current-layer="svg7946" />
  <!-- Generator: Sketch 52.6 (67491) - http://www.bohemiancoding.com/sketch -->
  <title
     id="title7929">2633762-device-doc-document-file-page-print-printer</title>
  <desc
     id="desc7931">Created with Sketch.</desc>
  <g
     id="g10017">
    <path
       d="M 51.423913,1.0909091 69.467391,19.272727 54.130435,23.454545 c 0,0 -5.593478,-9.818181 -5.593478,-10.181818 0,-0.363636 2.886956,-12.1818179 2.886956,-12.1818179 z"
       id="Shape"
       inkscape:connector-curvature="0"
       style="fill:#7bd235;fill-opacity:1;fill-rule:nonzero;stroke:none;stroke-width:1" />
    <path
       d="M 70.369565,59.636364 V 21.818182 c 0,-2 -1.623913,-3.636364 -3.608695,-3.636364 H 55.934783 c -1.984783,0 -3.608696,-1.636363 -3.608696,-3.636363 V 3.6363636 C 52.326087,1.6363636 50.702174,0 48.717391,0 H 16.23913 C 14.254348,0 12.630435,1.6363636 12.630435,3.6363636 V 59.636364 Z"
       id="path7934"
       inkscape:connector-curvature="0"
       style="fill:#d9dce1;fill-opacity:1;fill-rule:nonzero;stroke:none;stroke-width:1" />
    <path
       d="M 79.391304,67.272727 H 3.6086957 C 1.623913,67.272727 0,65.636364 0,63.636364 V 32.727273 c 0,-4 3.2478261,-7.272728 7.2173913,-7.272728 H 75.782609 C 79.752174,25.454545 83,28.727273 83,32.727273 v 30.909091 c 0,2 -1.623913,3.636363 -3.608696,3.636363 z"
       id="path7936"
       inkscape:connector-curvature="0"
       style="fill:#549321;fill-opacity:1;fill-rule:nonzero;stroke:none;stroke-width:1" />
    <path
       d="m 12.630435,54.181818 v 22.181818 c 0,2 1.623913,3.636364 3.608695,3.636364 h 50.52174 c 1.984782,0 3.608695,-1.636364 3.608695,-3.636364 V 54.181818 Z"
       id="path7938"
       inkscape:connector-curvature="0"
       style="fill:#d9dce1;fill-opacity:1;fill-rule:nonzero;stroke:none;stroke-width:1" />
    <path
       d="M 30.673913,61.818182 H 52.326087"
       id="path7940"
       inkscape:connector-curvature="0"
       style="fill:none;fill-rule:evenodd;stroke:#ffffff;stroke-width:3.61999989;stroke-linecap:square" />
    <ellipse
       id="Oval"
       cx="64.95652"
       cy="40"
       rx="3.6086957"
       ry="3.6363637"
       style="fill:#7bd235;fill-opacity:1;fill-rule:nonzero;stroke:none;stroke-width:1" />
  </g>
</svg>
