<?xml version="1.0" encoding="UTF-8" standalone="no"?>
<svg
   xmlns:dc="http://purl.org/dc/elements/1.1/"
   xmlns:cc="http://creativecommons.org/ns#"
   xmlns:rdf="http://www.w3.org/1999/02/22-rdf-syntax-ns#"
   xmlns:svg="http://www.w3.org/2000/svg"
   xmlns="http://www.w3.org/2000/svg"
   xmlns:sodipodi="http://sodipodi.sourceforge.net/DTD/sodipodi-0.dtd"
   xmlns:inkscape="http://www.inkscape.org/namespaces/inkscape"
   width="105px"
   height="71px"
   viewBox="0 0 105 71"
   version="1.1"
   id="svg9311"
   sodipodi:docname="device-tv.svg"
   inkscape:version="0.92.3 (2405546, 2018-03-11)">
  <metadata
     id="metadata9317">
    <rdf:RDF>
      <cc:Work
         rdf:about="">
        <dc:format>image/svg+xml</dc:format>
        <dc:type
           rdf:resource="http://purl.org/dc/dcmitype/StillImage" />
      </cc:Work>
    </rdf:RDF>
  </metadata>
  <defs
     id="defs9315" />
  <sodipodi:namedview
     pagecolor="#ffffff"
     bordercolor="#666666"
     borderopacity="1"
     objecttolerance="10"
     gridtolerance="10"
     guidetolerance="10"
     inkscape:pageopacity="0"
     inkscape:pageshadow="2"
     inkscape:window-width="1920"
     inkscape:window-height="1022"
     id="namedview9313"
     showgrid="false"
     inkscape:zoom="9.2571428"
     inkscape:cx="52.5"
     inkscape:cy="35.5"
     inkscape:window-x="0"
     inkscape:window-y="0"
     inkscape:window-maximized="1"
     inkscape:current-layer="svg9311" />
  <!-- Generator: Sketch 52.6 (67491) - http://www.bohemiancoding.com/sketch -->
  <title
     id="title9297">2870368-adaptive-computer-design-devices-mobile-responsive-screen copy</title>
  <desc
     id="desc9299">Created with Sketch.</desc>
  <g
     id="g9885">
    <polygon
       id="Rectangle-path"
       points="56,66 51,66 51,52 56,52 "
       style="fill:#7bd235;fill-rule:nonzero;stroke:none;stroke-width:1;fill-opacity:1" />
    <path
       d="M 105,57 H 0 V 4.2222222 C 0,1.8894444 2.0429348,0 4.5652174,0 H 100.43478 C 102.95707,0 105,1.8894444 105,4.2222222 Z"
       id="Shape"
       inkscape:connector-curvature="0"
       style="fill:#d9dce1;fill-rule:nonzero;stroke:none;stroke-width:1" />
    <path
       d="M 105,57 H 0 v 2.666667 C 0,60.403333 2.0429348,61 4.5652174,61 H 100.43478 C 102.95707,61 105,60.403333 105,59.666667 Z"
       id="path9303"
       inkscape:connector-curvature="0"
       style="fill:#549321;fill-rule:nonzero;stroke:none;stroke-width:1;fill-opacity:1" />
    <path
       d="M 105,4 H 0 V 1.3333333 C 0,0.5966667 2.0429348,0 4.5652174,0 H 100.43478 C 102.95707,0 105,0.5966667 105,1.3333333 Z"
       id="Shape-Copy"
       inkscape:connector-curvature="0"
       style="fill:#549321;fill-rule:nonzero;stroke:none;stroke-width:1;fill-opacity:1" />
    <path
       d="M 71.4,66 H 34.6 C 32.0585,66 30,67.491667 30,69.333333 V 71 H 76 V 69.333333 C 76,67.491667 73.9415,66 71.4,66 Z"
       id="path9306"
       inkscape:connector-curvature="0"
       style="fill:#549321;fill-rule:nonzero;stroke:none;stroke-width:1;fill-opacity:1" />
  </g>
</svg>
