<?xml version="1.0" encoding="UTF-8" standalone="no"?>
<svg
   xmlns:dc="http://purl.org/dc/elements/1.1/"
   xmlns:cc="http://creativecommons.org/ns#"
   xmlns:rdf="http://www.w3.org/1999/02/22-rdf-syntax-ns#"
   xmlns:svg="http://www.w3.org/2000/svg"
   xmlns="http://www.w3.org/2000/svg"
   xmlns:sodipodi="http://sodipodi.sourceforge.net/DTD/sodipodi-0.dtd"
   xmlns:inkscape="http://www.inkscape.org/namespaces/inkscape"
   version="1.1"
   viewBox="9.5 15 45 45"
   id="svg3779"
   sodipodi:docname="invizbox-2.svg"
   inkscape:version="0.92.3 (2405546, 2018-03-11)">
  <metadata
     id="metadata3785">
    <rdf:RDF>
      <cc:Work
         rdf:about="">
        <dc:format>image/svg+xml</dc:format>
        <dc:type
           rdf:resource="http://purl.org/dc/dcmitype/StillImage" />
        <dc:title></dc:title>
      </cc:Work>
    </rdf:RDF>
  </metadata>
  <defs
     id="defs3783" />
  <sodipodi:namedview
     pagecolor="#ffffff"
     bordercolor="#666666"
     borderopacity="1"
     objecttolerance="10"
     gridtolerance="10"
     guidetolerance="10"
     inkscape:pageopacity="0"
     inkscape:pageshadow="2"
     inkscape:window-width="1920"
     inkscape:window-height="1027"
     id="namedview3781"
     showgrid="false"
     inkscape:snap-global="false"
     inkscape:zoom="13.136473"
     inkscape:cx="22.375707"
     inkscape:cy="22.663317"
     inkscape:window-x="1920"
     inkscape:window-y="0"
     inkscape:window-maximized="1"
     inkscape:current-layer="svg3779" />
  <!--Generated by IJSVG (https://github.com/iconjar/IJSVG)-->
  <path
     d="m 15.435956,48.008171 c 0,2.7248 7.274008,5.010115 16.259543,5.010115 8.98554,0 16.259544,-2.285315 16.259544,-5.010115 V 42.119092 H 15.435956 Z"
     id="path3775"
     inkscape:connector-curvature="0"
     style="fill:#d9dce1;stroke-width:0.86728871" />
  <path
     d="m 43.192708,39.194661 c 6.349746,1.669583 6.349746,4.37651 0,6.046092 -6.349743,1.669584 -16.644723,1.669584 -22.994501,0 -6.349747,-1.669582 -6.349747,-4.376509 0,-6.046092 6.349745,-1.669583 16.644723,-1.669583 22.994501,0"
     id="path3777"
     inkscape:connector-curvature="0"
     style="fill:#56aaff;stroke-width:0.80116099" />
  <path
     d="M 32.161759,36.865128 V 32.962989 H 44.717343"
     id="path7"
     inkscape:connector-curvature="0"
     style="fill:none;stroke:#56aaff;stroke-width:1.56514597" />
  <path
     d="M 43.932619,33.743417 V 29.060849"
     id="path11"
     inkscape:connector-curvature="0"
     style="fill:none;stroke:#56aaff;stroke-width:1.56514597" />
  <path
     d="m 40.017192,20.574423 h 7.86853 v 6.716282 h -7.86853 z"
     id="path21"
     inkscape:connector-curvature="0"
     style="fill:#0478ed;stroke-width:0.76628447" />
  <g
     transform="matrix(0.78472402,0,0,0.78042785,18.68559,-17.809989)"
     id="g29"
     style="fill:#56aaff">
    <path
       d="m 37.5,51 h -11 C 26.2,51 26,50.8 26,50.5 v -2 C 26,48.2 26.2,48 26.5,48 h 11 c 0.3,0 0.5,0.2 0.5,0.5 v 2 c 0,0.3 -0.2,0.5 -0.5,0.5 z"
       id="path23"
       inkscape:connector-curvature="0" />
    <path
       d="m 37.5,55 h -11 C 26.2,55 26,54.8 26,54.5 v -2 C 26,52.2 26.2,52 26.5,52 h 11 c 0.3,0 0.5,0.2 0.5,0.5 v 2 c 0,0.3 -0.2,0.5 -0.5,0.5 z"
       id="path25"
       inkscape:connector-curvature="0" />
    <path
       d="m 37.5,59 h -11 C 26.2,59 26,58.8 26,58.5 v -2 C 26,56.2 26.2,56 26.5,56 h 11 c 0.3,0 0.5,0.2 0.5,0.5 v 2 c 0,0.3 -0.2,0.5 -0.5,0.5 z"
       id="path27"
       inkscape:connector-curvature="0" />
  </g>
</svg>
