<?xml version="1.0" encoding="UTF-8"?>
<svg width="77px" height="80px" viewBox="0 0 77 80" version="1.1" xmlns="http://www.w3.org/2000/svg" xmlns:xlink="http://www.w3.org/1999/xlink">
    <!-- Generator: Sketch 51.3 (57544) - http://www.bohemiancoding.com/sketch -->
    <title>3132422-big-cloud-data-database-distributed-global-massive</title>
    <desc>Created with Sketch.</desc>
    <defs></defs>
    <g id="Pages-and-patterns" stroke="none" stroke-width="1" fill="none" fill-rule="evenodd">
        <g id="Networks---FTUX" transform="translate(-580.000000, -1145.000000)">
            <g id="SERVICES" transform="translate(149.000000, 584.000000)">
                <g id="Tor" transform="translate(390.000000, 519.000000)">
                    <g id="3132422-big-cloud-data-database-distributed-global-massive" transform="translate(43.000000, 42.000000)">
                        <ellipse id="Oval" fill="#D9DCE1" fill-rule="nonzero" cx="36.7021277" cy="40" rx="25.5319149" ry="25.2631579"></ellipse>
                        <ellipse id="Oval" fill="#D9DCE1" fill-rule="nonzero" cx="36.7021277" cy="40" rx="25.5319149" ry="25.2631579"></ellipse>
                        <g id="Group" transform="translate(49.468085, 5.263158)" stroke="#D9DCE1" stroke-dasharray="0.1417936208526349,5.671732191960814" stroke-linecap="round" stroke-width="3.14999986">
                            <path d="M0.159574468,0.789473684 C4.78723404,2.52631579 9.09574468,5.21052632 12.606383,8.52631579" id="Shape"></path>
                        </g>
                        <g id="Group" transform="translate(12.765957, 6.263158)" stroke="#D9DCE1" stroke-dasharray="0.1814399964666364,7.254449586439137" stroke-linecap="round" stroke-width="3.14999986">
                            <path d="M9.57446809,0.263157895 C6.06382979,1.68421053 2.87234043,3.73684211 0,6.26315789" id="Shape"></path>
                        </g>
                        <g id="Group" transform="translate(0.000000, 27.368421)" stroke="#D9DCE1" stroke-linecap="round" stroke-width="3.14999986">
                            <path d="M1.91489362,24 C1.91489362,24 1.75531915,24 1.91489362,24" id="Shape"></path>
                            <path d="M0.478723404,18.4736842 C0.159574468,16.5789474 0,14.5263158 0,12.6315789 C0,9.63157895 0.319148936,6.63157895 1.11702128,3.78947368" id="Shape" stroke-dasharray="0.1426670866490163,5.706697109463221"></path>
                            <path d="M1.91489362,1.10526316 C1.91489362,0.947368421 1.91489362,0.947368421 1.91489362,1.10526316" id="Shape"></path>
                        </g>
                        <g id="Group" transform="translate(8.978723, 63.684211)" stroke="#D9DCE1" stroke-linecap="round" stroke-width="3.14999986">
                            <path d="M20.0638298,11.8421053 C19.9042553,11.8421053 19.9042553,11.8421053 20.0638298,11.8421053" id="Shape"></path>
                            <path d="M14.4787234,10.2631579 C9.85106383,8.52631579 5.70212766,5.84210526 2.19148936,2.52631579" id="Shape" stroke-dasharray="0.1402609016379444,5.610464604220397"></path>
                            <path d="M0.276595745,0.473684211 C0.276595745,0.315789474 0.276595745,0.315789474 0.276595745,0.473684211" id="Shape"></path>
                        </g>
                        <g id="Group" transform="translate(44.085106, 63.684211)" stroke="#D9DCE1" stroke-linecap="round" stroke-width="3.14999986">
                            <path d="M20.2234043,0.157894737 C20.2234043,0.315789474 20.2234043,0.315789474 20.2234043,0.157894737" id="Shape"></path>
                            <path d="M16.0744681,4.26315789 C12.2446809,7.42105263 7.77659574,9.78947368 2.9893617,11.2105263" id="Shape" stroke-dasharray="0.1433611685498022,5.734417201931478"></path>
                            <path d="M0.117021277,11.8421053 C0.117021277,11.8421053 -0.0425531915,11.8421053 0.117021277,11.8421053" id="Shape"></path>
                        </g>
                        <g id="Group" transform="translate(71.212766, 27.368421)" stroke="#D9DCE1" stroke-linecap="round" stroke-width="3.14999986">
                            <path d="M0.276595745,0.789473684 C0.276595745,0.947368421 0.276595745,0.947368421 0.276595745,0.789473684" id="Shape"></path>
                            <path d="M1.71276596,6.47368421 C2.03191489,8.52631579 2.19148936,10.5789474 2.19148936,12.6315789 C2.19148936,15.6315789 1.87234043,18.4736842 1.23404255,21.1578947" id="Shape" stroke-dasharray="0.1436819160299336,5.74733221656561"></path>
                        </g>
                        <g id="Group" transform="translate(36.702128, 3.684211)" stroke="#D9DCE1" stroke-linecap="round" stroke-width="3.14999986">
                            <path d="M0,8.36842105 L0,8.21052632" id="Shape"></path>
                            <path d="M0,4.26315789 L0,2.05263158" id="Shape" stroke-dasharray="0.1011111057080605,4.044442350776194"></path>
                            <path d="M0,0.157894737 L0,0" id="Shape"></path>
                        </g>
                        <g id="Group" transform="translate(36.702128, 66.842105)" stroke="#D9DCE1" stroke-dasharray="0.104999988973141,4.200051879880448" stroke-linecap="round" stroke-width="3.14999986">
                            <path d="M0,5.21052632 L0,3" id="Shape"></path>
                        </g>
                        <g id="Group" transform="translate(4.787234, 21.052632)" stroke="#D9DCE1" stroke-dasharray="0.09979061180168713,3.991679797096253" stroke-linecap="round" stroke-width="3.14999986">
                            <path d="M3.82978723,2.84210526 L1.91489362,1.89473684" id="Shape"></path>
                        </g>
                        <g id="Group" transform="translate(60.638298, 53.631579)" stroke="#D9DCE1" stroke-dasharray="0.102597605993175,4.103977338860034" stroke-linecap="round" stroke-width="3.14999986">
                            <path d="M4.14893617,2.47368421 L2.23404255,1.36842105" id="Shape"></path>
                        </g>
                        <g id="Group" transform="translate(4.787234, 53.631579)" stroke="#D9DCE1" stroke-dasharray="0.1006012110919627,4.024124797224999" stroke-linecap="round" stroke-width="3.14999986">
                            <path d="M3.82978723,2.47368421 L1.91489362,3.42105263" id="Shape"></path>
                        </g>
                        <g id="Group" transform="translate(60.638298, 21.052632)" stroke="#D9DCE1" stroke-linecap="round" stroke-width="3.14999986">
                            <path d="M4.14893617,2.84210526 L2.39361702,3.94736842" id="Shape" stroke-dasharray="0.1011942653596165,4.047749836206435"></path>
                            <path d="M0.638297872,4.89473684 L0.478723404,5.05263158" id="Shape"></path>
                        </g>
                        <ellipse id="Oval" fill="#D9DCE1" fill-rule="nonzero" cx="36.7021277" cy="40" rx="25.5319149" ry="25.2631579"></ellipse>
                        <path d="M26.8085106,16.6315789 C21.0638298,19 16.4361702,23.4210526 13.7234043,28.7894737 C14.8404255,30.3684211 15.7978723,32.1052632 15.7978723,33.5263158 C15.7978723,36.3684211 13.2446809,37.4736842 11.1702128,37.9473684 C11.1702128,37.9473684 11.1702128,37.9473684 11.1702128,37.9473684 C11.1702128,38.5789474 11.1702128,39.2105263 11.1702128,39.6842105 C11.1702128,43.7894737 12.1276596,47.5789474 13.8829787,50.8947368 C17.712766,54.6842105 22.9787234,58.9473684 23.4574468,55.6315789 C23.7765957,53.1052632 22.6595745,50.1052632 26.0106383,47.2631579 C29.3617021,44.4210526 28.5638298,43.7894737 26.8085106,42.8421053 C25.0531915,41.8947368 25.0531915,40.6315789 24.893617,38.8947368 C24.7340426,37.1578947 23.1382979,36.5263158 20.9042553,36.0526316 C18.8297872,35.5789474 17.5531915,33.8421053 17.712766,33.3684211 C17.8723404,32.8947368 19.787234,31.6315789 22.5,31.3157895 C25.212766,31 27.606383,30.5263158 27.9255319,29.2631579 C28.2446809,28 26.8085106,26.5789474 28.7234043,27.5263158 C29.3617021,27.8421053 30.4787234,28.6315789 31.7553191,28.4736842 C33.0319149,28.1578947 32.712766,24.3684211 32.8723404,22.6315789 C33.0319149,20.7368421 34.787234,21.8421053 34.4680851,23.4210526 C34.1489362,25 34.9468085,25.7894737 36.5425532,24.3684211 C38.1382979,22.9473684 37.1808511,20.7368421 35.9042553,19.4736842 C33.0319149,16.9473684 29.6808511,16.4736842 26.8085106,16.6315789 Z" id="Shape" fill-opacity="0.5" fill="#634294" fill-rule="nonzero"></path>
                        <path d="M62.0744681,37.3157895 C61.4361702,30.8421053 58.2446809,25.1578947 53.6170213,21.0526316 C52.1808511,20.7368421 50.9042553,20.5789474 48.8297872,20.7368421 C45.7978723,20.8947368 44.8404255,21.2105263 45.4787234,22.6315789 C46.1170213,24.0526316 44.8404255,26.1052632 43.0851064,26.8947368 C41.4893617,27.5263158 42.1276596,28.4736842 42.4468085,29.8947368 C42.7659574,31.1578947 42.1276596,31.4736842 40.212766,31.3157895 C38.2978723,31.1578947 37.8191489,35.1052632 38.9361702,35.2631579 C40.0531915,35.5789474 43.2446809,37 43.8829787,35.1052632 C44.3617021,33.3684211 44.8404255,32.4210526 46.4361702,34 C48.0319149,35.5789474 50.2659574,35.1052632 52.0212766,34.4736842 C53.7765957,33.8421053 55.3723404,31.7894737 55.6914894,33.3684211 C56.0106383,34.9473684 53.6170213,37.4736842 50.106383,37.3157895 C46.5957447,37.1578947 42.1276596,37 40.5319149,37.6315789 C38.9361702,38.2631579 35.9042553,42.0526316 36.5425532,44.5789474 C37.0212766,47.1052632 39.5744681,47.2631579 44.0425532,47.7368421 C48.3510638,48.2105263 45.7978723,51.0526316 45.3191489,54.8421053 C44.2021277,62.7368421 49.787234,58.4736842 53.2978723,54.6842105 C56.6489362,50.8947368 58.7234043,48.6842105 57.1276596,43.3157895 C56.0106383,40 59.6808511,38.1052632 62.0744681,37.3157895 Z" id="Shape" fill-opacity="0.5" fill="#634294" fill-rule="nonzero"></path>
                        <ellipse id="Oval" fill="#565090" fill-rule="nonzero" cx="36.7021277" cy="4.94736842" rx="4.78723404" ry="4.73684211"></ellipse>
                        <ellipse id="Oval" fill="#565090" fill-rule="nonzero" cx="36.7021277" cy="75.0526316" rx="4.78723404" ry="4.73684211"></ellipse>
                        <ellipse id="Oval" fill="#565090" fill-rule="nonzero" cx="6.06382979" cy="22.4736842" rx="4.78723404" ry="4.73684211"></ellipse>
                        <ellipse id="Oval" fill="#565090" fill-rule="nonzero" cx="67.3404255" cy="57.5263158" rx="4.78723404" ry="4.73684211"></ellipse>
                        <ellipse id="Oval" fill="#565090" fill-rule="nonzero" cx="6.06382979" cy="57.5263158" rx="4.78723404" ry="4.73684211"></ellipse>
                        <ellipse id="Oval" fill="#565090" fill-rule="nonzero" cx="67.3404255" cy="22.4736842" rx="4.78723404" ry="4.73684211"></ellipse>
                    </g>
                </g>
            </g>
        </g>
    </g>
</svg>