<?xml version="1.0" encoding="UTF-8"?>
<svg width="73px" height="80px" viewBox="0 0 73 80" version="1.1" xmlns="http://www.w3.org/2000/svg" xmlns:xlink="http://www.w3.org/1999/xlink">
    <!-- Generator: Sketch 51.3 (57544) - http://www.bohemiancoding.com/sketch -->
    <title>3132436-big-cloud-data-network-online-somputing-storage</title>
    <desc>Created with Sketch.</desc>
    <defs></defs>
    <g id="Pages-and-patterns" stroke="none" stroke-width="1" fill="none" fill-rule="evenodd">
        <g id="Networks---FTUX" transform="translate(-975.000000, -1143.000000)">
            <g id="SERVICES" transform="translate(149.000000, 584.000000)">
                <g id="No-network" transform="translate(780.000000, 519.000000)">
                    <g id="3132436-big-cloud-data-network-online-somputing-storage" transform="translate(46.000000, 40.000000)">
                        <path d="M36.5,7.40740741 L36.5,72.5925926" id="Shape" stroke="#D9DCE1" stroke-width="5.96000004"></path>
                        <path d="M7.4,23.5555556 L65.6,56.4444444" id="Shape" stroke="#D9DCE1" stroke-width="5.96000004"></path>
                        <ellipse id="Oval" fill="#9E8EBA" fill-rule="nonzero" cx="36.5" cy="7.40740741" rx="7.5" ry="7.40740741"></ellipse>
                        <ellipse id="Oval" fill="#9E8EBA" fill-rule="nonzero" cx="36.5" cy="72.5925926" rx="7.5" ry="7.40740741"></ellipse>
                        <ellipse id="Oval" fill="#9E8EBA" fill-rule="nonzero" cx="7.7" cy="23.5555556" rx="7.5" ry="7.40740741"></ellipse>
                        <ellipse id="Oval" fill="#9E8EBA" fill-rule="nonzero" cx="65.3" cy="56.4444444" rx="7.5" ry="7.40740741"></ellipse>
                        <path d="M7.4,56.4444444 L65.6,23.5555556" id="Shape" stroke="#D9DCE1" stroke-width="5.96000004"></path>
                        <ellipse id="Oval" fill="#9E8EBA" fill-rule="nonzero" cx="7.7" cy="56.4444444" rx="7.5" ry="7.40740741"></ellipse>
                        <ellipse id="Oval" fill="#9E8EBA" fill-rule="nonzero" cx="65.3" cy="23.5555556" rx="7.5" ry="7.40740741"></ellipse>
                        <path d="M36.5,24.8888708 L23.972,31.9588708 C23.37125,32.2988708 23,32.9305375 23,33.6138708 L23,49.8888708 C23,50.8088708 23.756,51.5555375 24.6875,51.5555375 L33.125,51.5555375 L33.125,43.2222041 L39.875,43.2222041 L39.875,51.5555375 L48.3125,51.5555375 C49.244,51.5555375 50,50.8088708 50,49.8888708 L50,33.6138708 C50,32.9305375 49.62875,32.2988708 49.028,31.9605375 L36.5,24.8888708 Z" id="Shape" fill="#565090" fill-rule="nonzero"></path>
                    </g>
                </g>
            </g>
        </g>
    </g>
</svg>