<?xml version="1.0" encoding="UTF-8"?>
<svg width="86px" height="89px" viewBox="0 0 86 89" version="1.1" xmlns="http://www.w3.org/2000/svg" xmlns:xlink="http://www.w3.org/1999/xlink">
    <!-- Generator: Sketch 51.3 (57544) - http://www.bohemiancoding.com/sketch -->
    <title>3132441-big-cdn-data-global-information-massive-world copy 2</title>
    <desc>Created with Sketch.</desc>
    <defs>
        <filter x="-2.8%" y="-3.9%" width="105.5%" height="109.8%" filterUnits="objectBoundingBox" id="filter-1">
            <feOffset dx="0" dy="2" in="SourceAlpha" result="shadowOffsetOuter1"></feOffset>
            <feGaussianBlur stdDeviation="3" in="shadowOffsetOuter1" result="shadowBlurOuter1"></feGaussianBlur>
            <feColorMatrix values="0 0 0 0 0.596078431   0 0 0 0 0.596078431   0 0 0 0 0.596078431  0 0 0 1 0" type="matrix" in="shadowBlurOuter1" result="shadowMatrixOuter1"></feColorMatrix>
            <feMerge>
                <feMergeNode in="shadowMatrixOuter1"></feMergeNode>
                <feMergeNode in="SourceGraphic"></feMergeNode>
            </feMerge>
        </filter>
    </defs>
    <g id="Pages-and-patterns" stroke="none" stroke-width="1" fill="none" fill-rule="evenodd">
        <g id="Networks---FTUX" transform="translate(-183.000000, -905.000000)">
            <g id="SERVICES" transform="translate(149.000000, 584.000000)">
                <g id="VPN-ONe" filter="url(#filter-1)" transform="translate(0.000000, 285.000000)">
                    <g id="3132441-big-cdn-data-global-information-massive-world-copy-2" transform="translate(40.000000, 40.000000)">
                        <circle id="Oval" fill="#D9DCE1" fill-rule="nonzero" cx="37" cy="40" r="37"></circle>
                        <circle id="Oval" fill="#D9DCE1" fill-rule="nonzero" cx="37" cy="40" r="37"></circle>
                        <circle id="Oval" fill="#D9DCE1" fill-rule="nonzero" cx="37" cy="40" r="37"></circle>
                        <path d="M22.5504762,6.0714898 C14.2339885,9.59708214 7.51682541,15.8469958 3.67844648,23.8597057 C5.27777103,26.1032644 6.55723068,28.6673316 6.55723068,30.9108903 C6.55723068,34.9172453 2.8787842,36.6800414 2.84097111e-15,37.4813124 C2.84097111e-15,37.4813124 2.84097111e-15,37.4813124 2.84097111e-15,37.4813124 C0,38.2825834 0,39.0838544 0,40.0453796 C0,45.9747848 1.4393921,51.5836817 3.83837893,56.3913076 C9.27608242,61.8399503 16.9528403,68.089864 17.7525026,63.2822381 C18.3922324,59.5963916 16.6329754,55.1092741 21.5908815,51.1029191 C26.5487876,47.0965642 25.269328,45.9747848 22.7104087,44.5324971 C20.1514894,43.0902093 20.1514894,41.3274131 19.9915569,38.763346 C19.8316245,36.359533 17.4326377,35.2377536 14.393921,34.5967369 C11.3552043,33.9557201 9.43601488,31.3916529 9.75587979,30.5903819 C10.0757447,29.789111 12.7945964,28.0263148 16.6329754,27.5455522 C20.4713543,27.2250438 23.9898683,26.4237728 24.3097332,24.6609766 C24.7895306,22.8981805 22.5504762,20.6546217 25.4292604,22.0969095 C26.2289227,22.5776721 27.9881797,23.8597057 29.7474367,23.3789431 C31.6666262,23.0584347 31.1868288,17.4495378 31.5066937,14.7252164 C31.8265586,12.0008951 34.2255455,13.6034371 33.7457481,16.00725 C33.2659507,18.411063 34.3854779,19.3725882 36.7844648,17.4495378 C39.1834516,15.3662332 37.584127,12.1611493 35.82487,10.3983531 C31.5066937,6.3919982 26.7087201,5.75098141 22.5504762,6.0714898 Z" id="Shape" fill-opacity="0.5" fill="#634294" fill-rule="nonzero"></path>
                        <path d="M74,36.0548925 C73.0374146,26.6724881 68.5453497,18.4032503 61.8072522,12.5193696 C59.7216506,12.201322 57.7964799,11.8832744 54.9087238,12.0422982 C50.5770897,12.201322 49.1332117,12.8374172 49.9353662,14.9047266 C50.7375206,16.9720361 48.9727808,19.9934884 46.5663174,21.106655 C44.1598541,22.0607978 45.2828703,23.492012 45.6037321,25.4002977 C45.9245939,27.3085833 45.2828703,27.6266309 42.3951142,27.4676071 C39.5073582,27.3085833 39.0260655,32.8744165 40.6303744,33.1924641 C42.2346834,33.5105117 46.8871792,35.5778211 47.6893337,33.0334403 C48.4914881,30.4890594 48.9727808,29.216869 51.3792442,31.4432022 C53.7857076,33.6695355 56.9943254,33.0334403 59.4007888,32.0792975 C61.8072522,31.1251546 64.2137156,28.1037024 64.6950083,30.4890594 C65.1763009,32.8744165 61.6468213,36.531964 56.6734636,36.0548925 C51.700106,35.5778211 45.1224394,35.5778211 42.8764069,36.531964 C40.4699435,37.4861068 36.2987403,42.8929161 37.1008948,46.7094874 C37.9030493,50.3670349 41.4325289,50.6850825 47.8497646,51.3211777 C54.2670003,51.9572729 50.4166589,56.0918918 49.6145044,61.4987012 C48.0101955,72.9484151 56.192171,66.9055105 61.1655286,61.3396774 C66.1388863,55.932868 68.8662115,52.5933682 66.7806099,44.9602256 C65.1763009,39.8714638 70.4705204,37.1680592 74,36.0548925 Z" id="Shape" fill-opacity="0.5" fill="#634294" fill-rule="nonzero"></path>
                        <path d="M65.5886525,14.3762376 L60.1229314,19.7623762 C59.8014184,20.0792079 59.3191489,20.0792079 58.9976359,19.7623762 L53.5319149,14.3762376 C50.1560284,11.049505 50.1560284,5.82178218 53.5319149,2.4950495 C56.9078014,-0.831683168 62.212766,-0.831683168 65.5886525,2.4950495 C68.8037825,5.82178218 68.8037825,11.2079208 65.5886525,14.3762376 Z" id="Shape" fill="#565090" fill-rule="nonzero"></path>
                        <path d="M62.9035533,11.8 C61.2791878,13.4 58.680203,13.4 57.2182741,11.8 C55.5939086,10.2 55.5939086,7.64 57.2182741,6.2 C58.8426396,4.6 61.4416244,4.6 62.9035533,6.2 C64.3654822,7.64 64.3654822,10.2 62.9035533,11.8 Z" id="Shape" fill="#FFFFFF" fill-rule="nonzero"></path>
                        <path d="M11,25.8288029 C11,25.8288029 20.6363636,32.2672067 20.6363636,48.3632163 C35.0909091,53.1920192 55.969697,51.5824182 64,41.9248125 C59.1818182,25.8288029 59.1818182,21 59.1818182,21 C60.6272727,24.380162 47.6181818,33.0720072 39.9090909,30.6576058 C39.9090909,40.3152115 28.8272727,48.5241764 20.6363636,48.3632163" id="Shape" stroke="#FFFFFF" stroke-width="2" stroke-linecap="round" stroke-linejoin="round"></path>
                        <path d="M15.3732394,24.0534125 L11.8098592,27.8753709 C11.6549296,28.041543 11.3450704,28.041543 11.1901408,27.8753709 L7.62676056,24.0534125 C5.45774648,21.727003 5.45774648,18.0712166 7.62676056,15.7448071 C9.79577465,13.4183976 13.2042254,13.4183976 15.3732394,15.7448071 C17.5422535,18.0712166 17.5422535,21.727003 15.3732394,24.0534125 Z" id="Shape" fill="#565090" fill-rule="nonzero"></path>
                        <path d="M24.3732394,46.0534125 L20.8098592,49.8753709 C20.6549296,50.041543 20.3450704,50.041543 20.1901408,49.8753709 L16.6267606,46.0534125 C14.4577465,43.727003 14.4577465,40.0712166 16.6267606,37.7448071 C18.7957746,35.4183976 22.2042254,35.4183976 24.3732394,37.7448071 C26.5422535,40.0712166 26.5422535,43.727003 24.3732394,46.0534125 Z" id="Shape" fill="#565090" fill-rule="nonzero"></path>
                        <path d="M44.3732394,28.0534125 L40.8098592,31.8753709 C40.6549296,32.041543 40.3450704,32.041543 40.1901408,31.8753709 L36.6267606,28.0534125 C34.4577465,25.727003 34.4577465,22.0712166 36.6267606,19.7448071 C38.7957746,17.4183976 42.2042254,17.4183976 44.3732394,19.7448071 C46.5422535,22.0712166 46.5422535,25.727003 44.3732394,28.0534125 Z" id="Shape" fill="#565090" fill-rule="nonzero"></path>
                        <path d="M68.3732394,40.0534125 L64.8098592,43.8753709 C64.6549296,44.041543 64.3450704,44.041543 64.1901408,43.8753709 L60.6267606,40.0534125 C58.4577465,37.727003 58.4577465,34.0712166 60.6267606,31.7448071 C62.7957746,29.4183976 66.2042254,29.4183976 68.3732394,31.7448071 C70.5422535,34.0712166 70.5422535,37.727003 68.3732394,40.0534125 Z" id="Shape" fill="#565090" fill-rule="nonzero"></path>
                    </g>
                </g>
            </g>
        </g>
    </g>
</svg>