<?xml version="1.0" encoding="UTF-8"?><svg version="1.1" viewBox="0 0 64 64" xmlns="http://www.w3.org/2000/svg" xmlns:xlink="http://www.w3.org/1999/xlink"><!--Generated by IJSVG (https://github.com/iconjar/IJSVG)--><path d="M46,40h-38c-1.105,0 -2,-0.895 -2,-2v-20c0,-1.105 0.895,-2 2,-2h38c1.105,0 2,0.895 2,2v20c0,1.105 -0.895,2 -2,2Z" fill="#56AAFF"></path><path fill="#D9DCE1" d="M56,48h-38c-1.105,0 -2,-0.895 -2,-2v-20c0,-1.105 0.895,-2 2,-2h38c1.105,0 2,0.895 2,2v20c0,1.105 -0.895,2 -2,2Z"></path><g fill="#0478ED"><path d="M43.364,29.636c3.51472,3.51472 3.51472,9.2132 0,12.7279c-3.51472,3.51472 -9.2132,3.51472 -12.7279,0c-3.51472,-3.51472 -3.51472,-9.2132 0,-12.7279c3.51472,-3.51472 9.2132,-3.51472 12.7279,0"></path><path d="M52.4142,34.5858c0.781049,0.781049 0.781049,2.04738 0,2.82843c-0.781049,0.781049 -2.04738,0.781049 -2.82843,0c-0.781049,-0.781049 -0.781049,-2.04738 0,-2.82843c0.781049,-0.781049 2.04738,-0.781049 2.82843,0"></path><path d="M24.4142,34.5858c0.781049,0.781049 0.781049,2.04738 0,2.82843c-0.781049,0.781049 -2.04738,0.781049 -2.82843,0c-0.781049,-0.781049 -0.781049,-2.04738 0,-2.82843c0.781049,-0.781049 2.04738,-0.781049 2.82843,0"></path></g></svg>