<?xml version="1.0" encoding="UTF-8"?><svg version="1.1" viewBox="0 0 64 64" xmlns="http://www.w3.org/2000/svg" xmlns:xlink="http://www.w3.org/1999/xlink"><!--Generated by IJSVG (https://github.com/iconjar/IJSVG)--><g fill="#56AAFF" fill-rule="evenodd"><path d="M56.221,19.689h-2.998c-0.267,-1.171 -0.731,-2.265 -1.353,-3.252l2.124,-2.124c0.304,-0.304 0.304,-0.798 0,-1.102l-2.204,-2.204c-0.304,-0.304 -0.798,-0.304 -1.102,0l-2.124,2.124c-0.987,-0.622 -2.081,-1.086 -3.252,-1.353v-2.999c0,-0.43 -0.349,-0.779 -0.779,-0.779h-3.117c-0.43,0 -0.779,0.349 -0.779,0.779v2.998c-1.171,0.267 -2.265,0.731 -3.252,1.353l-2.124,-2.124c-0.304,-0.304 -0.798,-0.304 -1.102,0l-2.204,2.204c-0.304,0.304 -0.304,0.798 0,1.102l2.124,2.124c-0.622,0.987 -1.086,2.081 -1.353,3.252h-2.998c-0.43,0 -0.779,0.349 -0.779,0.779v3.117c0,0.43 0.349,0.779 0.779,0.779h2.998c0.267,1.171 0.731,2.265 1.353,3.252l-2.124,2.124c-0.304,0.304 -0.304,0.798 0,1.102l2.204,2.204c0.304,0.304 0.798,0.304 1.102,0l2.124,-2.124c0.987,0.622 2.081,1.086 3.252,1.353v2.998c0,0.43 0.349,0.779 0.779,0.779h3.117c0.43,0 0.779,-0.349 0.779,-0.779v-2.998c1.171,-0.267 2.265,-0.731 3.252,-1.353l2.124,2.124c0.304,0.304 0.798,0.304 1.102,0l2.204,-2.204c0.304,-0.304 0.304,-0.798 0,-1.102l-2.124,-2.124c0.622,-0.987 1.086,-2.081 1.353,-3.252h2.998c0.43,0 0.779,-0.349 0.779,-0.779v-3.117c0,-0.43 -0.349,-0.778 -0.779,-0.778Zm-13.247,5.364c-1.671,0 -3.026,-1.355 -3.026,-3.026c0,-1.671 1.355,-3.026 3.026,-3.026c1.671,0 3.026,1.354 3.026,3.025c0,1.672 -1.355,3.027 -3.026,3.027Z"></path><path fill="#D9DCE1" d="M45.92,34.058h-4.155c-0.37,-1.623 -1.013,-3.139 -1.875,-4.507l2.944,-2.944c0.422,-0.422 0.422,-1.106 0,-1.527l-3.055,-3.055c-0.422,-0.422 -1.105,-0.422 -1.527,0l-2.944,2.944c-1.368,-0.863 -2.884,-1.505 -4.507,-1.875v-4.155c0,-0.596 -0.483,-1.08 -1.08,-1.08h-4.32c-0.596,0 -1.08,0.483 -1.08,1.08v4.155c-1.623,0.37 -3.139,1.013 -4.507,1.875l-2.944,-2.944c-0.422,-0.422 -1.106,-0.422 -1.527,0l-3.055,3.055c-0.422,0.422 -0.422,1.106 0,1.527l2.944,2.944c-0.863,1.368 -1.505,2.884 -1.875,4.507h-4.155c-0.596,0 -1.08,0.483 -1.08,1.08v4.32c0,0.596 0.484,1.08 1.08,1.08h4.155c0.37,1.623 1.013,3.139 1.875,4.507l-2.944,2.944c-0.422,0.422 -0.422,1.106 0,1.527l3.055,3.055c0.422,0.422 1.106,0.422 1.527,0l2.944,-2.944c1.368,0.863 2.884,1.505 4.507,1.875v4.155c0,0.596 0.484,1.08 1.08,1.08h4.32c0.596,0 1.08,-0.484 1.08,-1.08v-4.155c1.623,-0.37 3.139,-1.013 4.507,-1.875l2.944,2.944c0.422,0.422 1.106,0.422 1.527,0l3.055,-3.055c0.422,-0.422 0.422,-1.106 0,-1.527l-2.944,-2.944c0.863,-1.368 1.505,-2.884 1.875,-4.507h4.155c0.596,0 1.08,-0.484 1.08,-1.08v-4.32c7.10543e-15,-0.596 -0.483,-1.08 -1.08,-1.08Zm-18.359,7.344c-2.267,0 -4.104,-1.837 -4.104,-4.104c0,-2.267 1.837,-4.104 4.104,-4.104c2.267,0 4.104,1.837 4.104,4.104c0,2.267 -1.837,4.104 -4.104,4.104Z"></path></g></svg>