<?xml version="1.0" encoding="UTF-8" standalone="no"?>
<svg
   xmlns:osb="http://www.openswatchbook.org/uri/2009/osb"
   xmlns:dc="http://purl.org/dc/elements/1.1/"
   xmlns:cc="http://creativecommons.org/ns#"
   xmlns:rdf="http://www.w3.org/1999/02/22-rdf-syntax-ns#"
   xmlns:svg="http://www.w3.org/2000/svg"
   xmlns="http://www.w3.org/2000/svg"
   xmlns:xlink="http://www.w3.org/1999/xlink"
   xmlns:sodipodi="http://sodipodi.sourceforge.net/DTD/sodipodi-0.dtd"
   xmlns:inkscape="http://www.inkscape.org/namespaces/inkscape"
   version="1.1"
   viewBox="0 0 64 64"
   id="svg5149"
   sodipodi:docname="ui_-15.svg"
   inkscape:version="0.92.3 (2405546, 2018-03-11)">
  <metadata
     id="metadata5155">
    <rdf:RDF>
      <cc:Work
         rdf:about="">
        <dc:format>image/svg+xml</dc:format>
        <dc:type
           rdf:resource="http://purl.org/dc/dcmitype/StillImage" />
      </cc:Work>
    </rdf:RDF>
  </metadata>
  <defs
     id="defs5153">
    <linearGradient
       id="linearGradient5257"
       osb:paint="solid">
      <stop
         style="stop-color:#d9dce1;stop-opacity:1;"
         offset="0"
         id="stop5255" />
    </linearGradient>
    <linearGradient
       id="linearGradient5249"
       osb:paint="solid">
      <stop
         style="stop-color:#56aaff;stop-opacity:1;"
         offset="0"
         id="stop5247" />
    </linearGradient>
    <linearGradient
       inkscape:collect="always"
       xlink:href="#linearGradient5249"
       id="linearGradient5259"
       x1="59.562229"
       y1="33.821991"
       x2="79.426888"
       y2="33.821991"
       gradientUnits="userSpaceOnUse"
       gradientTransform="matrix(0.88312689,0,0,0.88312689,-28.28908,4.5683717)" />
  </defs>
  <sodipodi:namedview
     pagecolor="#ffffff"
     bordercolor="#666666"
     borderopacity="1"
     objecttolerance="10"
     gridtolerance="10"
     guidetolerance="10"
     inkscape:pageopacity="0"
     inkscape:pageshadow="2"
     inkscape:window-width="1920"
     inkscape:window-height="1022"
     id="namedview5151"
     showgrid="false"
     inkscape:zoom="12.921875"
     inkscape:cx="31.922612"
     inkscape:cy="32"
     inkscape:window-x="0"
     inkscape:window-y="0"
     inkscape:window-maximized="1"
     inkscape:current-layer="svg5149"
     showguides="false" />
  <!--Generated by IJSVG (https://github.com/iconjar/IJSVG)-->
  <g
     id="g922"
     clip-path="none"
     transform="matrix(1.3919837,0,0,1.3919837,-11.955541,-11.76717)">
    <path
       id="path5135"
       d="m 14.543457,10.495171 v 41.898601 c 0,1.102332 0.892839,1.995171 1.995171,1.995171 h 31.922744 c 1.102332,0 1.995171,-0.892839 1.995171,-1.995171 V 10.495171 C 50.456543,9.3928392 49.563704,8.5 48.461372,8.5 H 16.538628 c -1.102332,0 -1.995171,0.8928392 -1.995171,1.995171 z"
       inkscape:connector-curvature="0"
       style="fill:#d9dce1;stroke-width:0.99758571" />
    <path
       id="path5137"
       d="m 18.5,43 v 3 H 12 c -0.828,0 -1.5,-0.672 -1.5,-1.5 v 0 C 10.5,43.672 11.172,43 12,43 Z"
       inkscape:connector-curvature="0"
       style="fill:#0478ed" />
    <g
       id="g5143"
       style="fill:#0478ed">
      <path
         id="path5139"
         d="m 18.5,18 v 3 H 12 c -0.828,0 -1.5,-0.672 -1.5,-1.5 v 0 C 10.5,18.672 11.172,18 12,18 Z"
         inkscape:connector-curvature="0" />
      <path
         id="path5141"
         d="m 18.5,30.5 v 3 H 12 c -0.828,0 -1.5,-0.672 -1.5,-1.5 v 0 c 0,-0.828 0.672,-1.5 1.5,-1.5 z"
         inkscape:connector-curvature="0" />
    </g>
    <path
       id="path5211"
       d="m 27.77974,27.093904 c 0,-2.929271 2.374423,-5.303693 5.303694,-5.303693 2.929271,0 5.303694,2.374422 5.303694,5.303693 v 4.895717 H 27.77974 Z"
       inkscape:connector-curvature="0"
       style="fill:none;stroke:#56aaff;stroke-width:2.44785881;stroke-linecap:round;stroke-linejoin:round" />
    <path
       id="path5213"
       d="M 40.834986,28.317834 H 25.331881 c -0.450813,0 -0.815953,0.365139 -0.815953,0.815953 v 10.607387 c 0,0.450814 0.36514,0.815954 0.815953,0.815954 h 15.503105 c 0.450815,0 0.815953,-0.36514 0.815953,-0.815954 V 29.133787 c 0,-0.450814 -0.365138,-0.815953 -0.815953,-0.815953 z"
       inkscape:connector-curvature="0"
       style="fill:url(#linearGradient5259);fill-opacity:1;stroke:#56aaff;stroke-width:0.40800464;stroke-miterlimit:4;stroke-dasharray:none;stroke-opacity:1" />
    <path
       id="path5215"
       d="m 34.525834,31.771151 c 0.796624,0.796623 0.796624,2.088206 0,2.884829 -0.796623,0.796624 -2.088206,0.796624 -2.884829,0 -0.796624,-0.796623 -0.796624,-2.088206 0,-2.884829 0.796623,-0.796624 2.088206,-0.796624 2.884829,0"
       inkscape:connector-curvature="0"
       style="fill:#0478ed;stroke-width:0.40797645" />
    <path
       id="path5217"
       d="M 33.083434,33.621528 V 36.88534"
       inkscape:connector-curvature="0"
       style="fill:#ffffff;stroke:#0478ed;stroke-width:1.63190579;stroke-linecap:square" />
  </g>
</svg>
