<?xml version="1.0" encoding="UTF-8"?><svg version="1.1" viewBox="0 0 64 64" xmlns="http://www.w3.org/2000/svg" xmlns:xlink="http://www.w3.org/1999/xlink"><!--Generated by IJSVG (https://github.com/iconjar/IJSVG)--><path d="M10,15h44v30h-44Z" fill="#FFF"></path><path fill="#D9DCE1" d="M21.255,36.572l9.993,-10.243c0.339,-0.349 0.872,-0.418 1.292,-0.167l9.694,5.816l11.766,-14.155v-5.823c0,-1.105 -0.895,-2 -2,-2h-40c-1.105,0 -2,0.895 -2,2v20.085l11.255,4.487Z"></path><path d="M43.336,34.998c-0.186,0.245 -0.461,0.373 -0.748,0.397c-0.213,0.018 -0.432,-0.015 -0.628,-0.132l-9.763,-5.858l-0.025,-0.015l-9.92,10.168c-0.202,0.207 -0.475,0.317 -0.752,0.317c-0.142,0 -0.285,-0.029 -0.42,-0.088l-11.08,-4.41v16.623c0,1.105 0.895,2 2,2h40c1.105,0 2,-0.895 2,-2v-29.709l-10.664,12.707Z" fill="#56AAFF"></path></svg>