<?xml version="1.0" encoding="UTF-8"?><svg version="1.1" viewBox="0 0 64 64" xmlns="http://www.w3.org/2000/svg" xmlns:xlink="http://www.w3.org/1999/xlink"><!--Generated by IJSVG (https://github.com/iconjar/IJSVG)--><path d="M43.9,24.6v0l-11.3,-4.5c-0.4,-0.2 -0.8,-0.2 -1.2,0l-11.2,4.5c-0.4,0.2 -0.7,0.6 -0.7,1v13.4c0,0.4 0.3,0.8 0.7,1l11.3,4.5v0c0.2,0.1 0.4,0.1 0.6,0.1v-14c0,-0.4 0.3,-0.8 0.7,-1l11.5,-4.6c-0.1,-0.2 -0.3,-0.3 -0.4,-0.4Z" fill="#56AAFF"></path><path fill="#D9DCE1" d="M43.9,24.6v0l-11.3,-4.5c-0.4,-0.2 -0.8,-0.2 -1.2,0l-11.2,4.5c-0.2,0.1 -0.3,0.2 -0.4,0.3l12.6,5c0,0 0.3,-0.2 0.4,-0.3l11.5,-4.6c-0.1,-0.2 -0.3,-0.3 -0.4,-0.4Z"></path><path d="M9.5,32c0,-12.4 10.1,-22.5 22.5,-22.5c10.4,0 19.2,7.1 21.7,16.6" stroke-width="3" fill="none" stroke="#56AAFF"></path><path fill="#0478ED" d="M44.5,25.6c0,-0.2 -0.1,-0.5 -0.2,-0.6l-11.6,4.6c-0.4,0.2 -0.7,0.6 -0.7,1v14c0.2,0 0.4,0 0.6,-0.1v0l11.2,-4.5c0.4,-0.2 0.7,-0.6 0.7,-1v-13.4v0Z"></path><g stroke-width="3" fill="none" stroke="#56AAFF"><path d="M54.5,32c0,12.4 -10.1,22.5 -22.5,22.5c-10.6,0 -19.5,-7.3 -21.9,-17.2"></path><path stroke-linecap="round" d="M56.1,21.8l-2.2,4.5l-4.5,-2.1"></path><path stroke-linecap="round" d="M7.9,42.5l2.2,-4.5l4.5,2.2"></path></g></svg>