<?xml version="1.0" encoding="UTF-8"?><svg version="1.1" viewBox="0 0 64 64" xmlns="http://www.w3.org/2000/svg" xmlns:xlink="http://www.w3.org/1999/xlink"><!--Generated by IJSVG (https://github.com/iconjar/IJSVG)--><path d="M39.465,9.647l9.994,9.982l-8.49,2.277c0,0 -3.125,-5.375 -3.062,-5.562c0.063,-0.187 1.558,-6.697 1.558,-6.697Z" fill="#56AAFF"></path><path fill="#D9DCE1" d="M48,19h-6c-1.105,0 -2,-0.895 -2,-2v-6c0,-1.105 -0.895,-2 -2,-2h-22c-1.105,0 -2,0.895 -2,2v42c0,1.105 0.895,2 2,2h32c1.105,0 2,-0.895 2,-2v-32c0,-1.105 -0.895,-2 -2,-2Z"></path><g stroke-width="2" fill="none" stroke="#56AAFF"><path d="M24,36h14"></path><path stroke="#FFF" stroke-linecap="square" stroke-width="3" d="M30.5,43.5h9"></path><path d="M24,42h5"></path></g><path fill="#0478ED" d="M48.203,57.531l-6.284,-6.284l2.828,-2.828l6.284,6.284c0.781,0.781 0.781,2.047 0,2.828v0c-0.781,0.781 -2.047,0.781 -2.828,0Z"></path><g stroke-width="3" fill="none" stroke="#0478ED"><path d="M42.7544,38.4116c2.99415,2.99415 2.99415,7.84863 0,10.8428c-2.99415,2.99415 -7.84863,2.99415 -10.8428,0c-2.99415,-2.99415 -2.99415,-7.84863 0,-10.8428c2.99415,-2.99415 7.84863,-2.99415 10.8428,0"></path><path stroke="#56AAFF" stroke-width="2" d="M24,24h16"></path><path stroke="#56AAFF" stroke-width="2" d="M24,30h16"></path></g></svg>