<?xml version="1.0" encoding="UTF-8"?><svg version="1.1" viewBox="0 0 64 64" xmlns="http://www.w3.org/2000/svg" xmlns:xlink="http://www.w3.org/1999/xlink"><!--Generated by IJSVG (https://github.com/iconjar/IJSVG)--><path d="M47.9,22.3c0,-0.1 0,-0.2 0,-0.3c0,-8.4 -6.8,-15.3 -15.3,-15.3c-7.4,0 -13.6,5.3 -15,12.3c-8.6,0.2 -14.9,9.4 -10,18.5c1.9,3.4 5.5,5.5 9.4,5.5h31.3c3.3,0 6.4,-1.7 8,-4.6c4.5,-7.9 -0.9,-15.9 -8.4,-16.1Z" fill="#56AAFF"></path><path fill="none" stroke="#0478ED" stroke-width="2" d="M32,48v-5"></path><path d="M32,43v-16.7" stroke-width="2" fill="none" stroke="#FFF"></path><path fill="#FFF" d="M35,27.2l-3,-5.2l-3,5.2Z"></path><path d="M32,43v0c0,-3.8 3,-6.9 6.7,-7.1" stroke-width="2" fill="none" stroke="#FFF"></path><path fill="#FFF" d="M37.9,39l5.1,-3.1l-5.2,-2.9Z"></path><path d="M32,39.1c0,-3.8 -3,-6.9 -6.7,-7.1" stroke-width="2" fill="none" stroke="#FFF"></path><path fill="#FFF" d="M26.2,29.1l-5.2,2.9l5.1,3.1Z"></path><path d="M34.4749,51.5251c1.36684,1.36684 1.36684,3.58291 0,4.94975c-1.36684,1.36684 -3.58291,1.36684 -4.94975,0c-1.36684,-1.36684 -1.36684,-3.58291 0,-4.94975c1.36684,-1.36684 3.58291,-1.36684 4.94975,0" fill="#0478ED"></path></svg>