<?xml version="1.0" encoding="UTF-8"?><svg version="1.1" viewBox="0 0 64 64" xmlns="http://www.w3.org/2000/svg" xmlns:xlink="http://www.w3.org/1999/xlink"><!--Generated by IJSVG (https://github.com/iconjar/IJSVG)--><path d="M48.2635,15.7365c8.98206,8.98206 8.98206,23.5449 0,32.5269c-8.98206,8.98206 -23.5449,8.98206 -32.5269,0c-8.98206,-8.98206 -8.98206,-23.5449 0,-32.5269c8.98206,-8.98206 23.5449,-8.98206 32.5269,0" fill="#D9DCE1"></path><path fill="none" stroke="#0478ED" stroke-linecap="round" stroke-linejoin="round" stroke-width="4" d="M32,32l11.33,-1.83"></path><g fill="#56AAFF"><path d="M27.418,16.337l5.523,15.325c0.187,0.52 -0.082,1.093 -0.602,1.28c-0.52,0.187 -1.093,-0.082 -1.28,-0.602l-0.001,-0.003l-5.477,-15.342c-0.181,-0.507 0.083,-1.066 0.591,-1.247c0.508,-0.18 1.065,0.082 1.246,0.589Z"></path><path d="M34.1213,29.8787c1.17157,1.17157 1.17157,3.07107 0,4.24264c-1.17157,1.17157 -3.07107,1.17157 -4.24264,0c-1.17157,-1.17157 -1.17157,-3.07107 0,-4.24264c1.17157,-1.17157 3.07107,-1.17157 4.24264,0"></path></g></svg>