<?xml version="1.0" encoding="UTF-8"?><svg version="1.1" viewBox="0 0 64 64" xmlns="http://www.w3.org/2000/svg" xmlns:xlink="http://www.w3.org/1999/xlink"><!--Generated by IJSVG (https://github.com/iconjar/IJSVG)--><path d="M40.789,11.778l5.416,2.156l-19.08,10.191l-1.625,13.125l-10.125,-3.75l0.5,-14.25Z" fill="#FFF"></path><path fill="#56AAFF" d="M55.249,18.891c0,-0.447 -0.159,-0.862 -0.419,-1.203l-21.507,8.551c-0.761,0.303 -1.261,1.039 -1.261,1.858v26.052c0.374,-0.001 0.748,-0.071 1.102,-0.212h0.041l20.783,-8.271c0.761,-0.303 1.26,-1.039 1.26,-1.858l0.001,-24.917v0Z"></path><path d="M53.988,17.033l-0.003,-0.002l-7.78,-3.097l-21.979,8.782c-0.76,0.304 -1.258,1.039 -1.258,1.857v10.255l-5.468,-2.328v-10.062c0,-0.818 0.498,-1.554 1.258,-1.857l22.031,-8.803l-7.754,-3.086c-0.712,-0.283 -1.506,-0.284 -2.218,0l-20.797,8.27c-0.761,0.303 -1.261,1.039 -1.261,1.858l-0.009,24.925c0,0.819 0.499,1.556 1.26,1.859l20.936,8.334h0.001c0.355,0.141 0.731,0.212 1.107,0.212l0.009,-26.053c0,-0.819 0.5,-1.555 1.261,-1.858l21.505,-8.553c-0.215,-0.282 -0.496,-0.516 -0.841,-0.653Z" fill="#D9DCE1"></path></svg>