<?xml version="1.0" encoding="UTF-8" standalone="no"?>
<svg
   xmlns:dc="http://purl.org/dc/elements/1.1/"
   xmlns:cc="http://creativecommons.org/ns#"
   xmlns:rdf="http://www.w3.org/1999/02/22-rdf-syntax-ns#"
   xmlns:svg="http://www.w3.org/2000/svg"
   xmlns="http://www.w3.org/2000/svg"
   xmlns:sodipodi="http://sodipodi.sourceforge.net/DTD/sodipodi-0.dtd"
   xmlns:inkscape="http://www.inkscape.org/namespaces/inkscape"
   viewBox="0 0 512 512"
   id="svg4171"
   version="1.1"
   inkscape:version="0.91 r13725"
   sodipodi:docname="upload-firmware.svg">
  <metadata
     id="metadata4179">
    <rdf:RDF>
      <cc:Work
         rdf:about="">
        <dc:format>image/svg+xml</dc:format>
        <dc:type
           rdf:resource="http://purl.org/dc/dcmitype/StillImage" />
      </cc:Work>
    </rdf:RDF>
  </metadata>
  <defs
     id="defs4177" />
  <sodipodi:namedview
     pagecolor="#ffffff"
     bordercolor="#666666"
     borderopacity="1"
     objecttolerance="10"
     gridtolerance="10"
     guidetolerance="10"
     inkscape:pageopacity="0"
     inkscape:pageshadow="2"
     inkscape:window-width="1920"
     inkscape:window-height="1054"
     id="namedview4175"
     showgrid="false"
     inkscape:zoom="1.6992188"
     inkscape:cx="256"
     inkscape:cy="232.45977"
     inkscape:window-x="1366"
     inkscape:window-y="0"
     inkscape:window-maximized="1"
     inkscape:current-layer="svg4171">
    <inkscape:grid
       type="xygrid"
       id="grid4181" />
  </sodipodi:namedview>
  <g transform="translate(50,45),scale(0.8)">
  <path
     d="m 216,0 80,0 c 13.3,0 24,10.7 24,24 l 0,168 87.7,0 c 17.8,0 26.7,21.5 14.1,34.1 L 269.7,378.3 c -7.5,7.5 -19.8,7.5 -27.3,0 L 90.1,226.1 C 77.5,213.5 86.4,192 104.2,192 l 87.8,0 0,-168 C 192,10.7 202.7,0 216,0 Z"
     id="path4189"
     style="fill:#278dff;fill-opacity:1" />
  <path
     d="m 512,376 0,112 c 0,13.3 -10.7,24 -24,24 L 24,512 C 10.7,512 0,501.3 0,488 L 0,376 c 0,-13.3 10.7,-24 24,-24 l 146.7,0 49,49 c 20.1,20.1 52.5,20.1 72.6,0 l 49,-49 146.7,0 c 13.3,0 24,10.7 24,24 z"
     id="path4187"
     style="fill:#b3b3b3" />
  <path
     d="m 388,464 c 0,-11 -9,-20 -20,-20 -11,0 -20,9 -20,20 0,11 9,20 20,20 11,0 20,-9 20,-20 z"
     id="path4185"
     style="fill:#333333" />
  <path
     d="m 452,464 c 0,-11 -9,-20 -20,-20 -11,0 -20,9 -20,20 0,11 9,20 20,20 11,0 20,-9 20,-20 z"
     id="path4173"
     style="fill:#333333" />
  </g>
</svg>
