<?xml version="1.0" encoding="UTF-8"?><svg version="1.1" viewBox="9 9 46 46" xmlns="http://www.w3.org/2000/svg" xmlns:xlink="http://www.w3.org/1999/xlink"><!--Generated by IJSVG (https://github.com/iconjar/IJSVG)--><path d="M39.7782,20.2218c4.29577,4.29577 4.29577,11.2606 0,15.5563c-4.29577,4.29577 -11.2606,4.29577 -15.5563,0c-4.29577,-4.29577 -4.29577,-11.2606 -3.55271e-15,-15.5563c4.29577,-4.29577 11.2606,-4.29577 15.5563,-3.55271e-15" fill="#FFF"></path><path fill="#D9DCE1" d="M32,9c-12.703,0 -23,10.297 -23,23c0,12.703 10.297,23 23,23c12.703,0 23,-10.297 23,-23c0,-12.703 -10.297,-23 -23,-23Zm0,29c-4.971,0 -9,-4.029 -9,-9c0,-4.971 4.029,-9 9,-9c4.971,0 9,4.029 9,9c0,4.971 -4.029,9 -9,9Z"></path><path d="M32,55c5.722,0 10.953,-2.095 14.977,-5.553c-1.543,-6.092 -7.657,-8.447 -14.977,-8.447c-7.32,0 -13.434,2.355 -14.977,8.447c4.024,3.458 9.255,5.553 14.977,5.553Z" fill="#56AAFF"></path></svg>