<?xml version="1.0" encoding="UTF-8"?>
<svg width="192px" height="24px" viewBox="0 0 192 24" version="1.1" xmlns="http://www.w3.org/2000/svg" xmlns:xlink="http://www.w3.org/1999/xlink">
    <!-- Generator: Sketch 50.2 (55047) - http://www.bohemiancoding.com/sketch -->
    <title>logo simple</title>
    <desc>Created with Sketch.</desc>
    <defs>
        <polygon id="path-1" points="11.7488455 0 3.81002727 9.18632967 0.173754545 4.94307692 4.4613 0"></polygon>
        <linearGradient x1="100.076638%" y1="5.76673502%" x2="93.3768556%" y2="35.2680964%" id="linearGradient-3">
            <stop stop-color="#0F5686" offset="0%"></stop>
            <stop stop-color="#14A6C6" offset="100%"></stop>
        </linearGradient>
    </defs>
    <g id="Page-1" stroke="none" stroke-width="1" fill="none" fill-rule="evenodd">
        <g id="Networks---FTUX" transform="translate(-148.000000, -60.000000)">
            <g id="Header">
                <g id="logo-simple" transform="translate(148.000000, 60.000000)">
                    <g id="Group-9" fill="#4D4C4D">
                        <polygon id="Fill-1" points="5.45524592 24 0 24 0 0 5.45524592 0"></polygon>
                        <polygon id="Fill-3" points="33.5497624 24 27.8938453 24 13.3653525 7.76539091 13.3653525 24 7.91010659 24 7.91010659 0 13.4549004 0 27.8217542 15.9883909 27.8217542 0 33.5497624 0"></polygon>
                        <polygon id="Fill-4" points="63.8271683 0 51.5842326 24 46.818257 24 34.5284063 0 40.7902103 0 49.2477508 16.3629545 57.5661826 0"></polygon>
                        <polygon id="Fill-5" points="71.1909593 24 65.4629511 24 65.4629511 0 71.1909593 0"></polygon>
                        <polygon id="Fill-6" points="99.2854758 24 73.3730577 24 73.3730577 18.3240273 89.8535193 5.45454545 73.3730577 5.45454545 73.3730577 0 98.731932 0 98.6381018 5.42975455 82.516759 18.3706636 99.2854758 18.3240273"></polygon>
                        <path d="M124.808717,18.2727273 C125.616093,18.324 126.020054,17.7242727 126.020054,16.5256364 C126.020054,15.327 125.616093,14.7272727 124.808717,14.7272727 L107.195582,14.7272727 L107.195582,18.2727273 L124.808717,18.2727273 Z M124.431759,9 C125.242409,9.12 125.64637,8.52109091 125.64637,7.32136364 C125.64637,6.12272727 125.242409,5.45454545 124.431759,5.45454545 L107.195582,5.45454545 L107.195582,9 L124.431759,9 Z M128.684669,11.76 C130.647194,12.9730909 131.62832,14.823 131.62832,17.3097273 C131.62832,19.1124545 131.051427,20.6353636 129.899279,21.879 C128.652483,23.2475455 126.970903,24 124.852359,24 L101.467574,24 L101.467574,0 L124.431759,0 C126.549213,0 128.232429,0.600545455 129.47868,1.96772727 C130.600006,3.21163636 131.161078,4.73509091 131.161078,6.53727273 C131.161078,8.77527273 130.335426,10.5169091 128.684669,11.76 Z" id="Fill-7"></path>
                        <path d="M157.656607,16.3227545 L157.656607,7.52457273 C157.656607,6.19039091 156.814672,5.45454545 155.319662,5.45454545 L141.207486,5.45454545 C139.712203,5.45454545 138.836009,6.19039091 138.836009,7.52457273 L138.836009,16.3227545 C138.836009,17.6569364 139.712203,18.2727273 141.207486,18.2727273 L155.319662,18.2727273 C156.814672,18.2727273 157.561768,17.6569364 157.561768,16.3227545 L157.656607,16.3227545 Z M163.169761,16.3303909 C163.169761,18.5070273 162.405753,20.3165727 160.879921,21.7628455 C159.353543,23.2083 157.499578,24 155.319662,24 L141.207486,24 C139.027024,24 137.172786,23.2083 135.647227,21.7628455 C134.12003,20.3165727 133.380763,18.5070273 133.380763,16.3303909 L133.380763,7.51666364 C133.380763,5.34084545 134.12003,3.52939091 135.647227,2.08420909 C137.172786,0.638754545 139.027024,0 141.207486,0 L155.319662,0 C157.499578,0 159.353543,0.638754545 160.879921,2.08420909 C162.405753,3.52939091 163.169761,5.34084545 163.169761,7.51666364 L163.169761,16.3303909 Z" id="Fill-8"></path>
                    </g>
                    <g id="Group-12" transform="translate(180.000000, 0.000000)">
                        <mask id="mask-2" fill="white">
                            <use xlink:href="#path-1"></use>
                        </mask>
                        <g id="Clip-11"></g>
                        <polygon id="Fill-10" fill="url(#linearGradient-3)" mask="url(#mask-2)" points="-180.545455 23.2087912 12.2727273 23.2087912 12.2727273 -0.263736264 -180.545455 -0.263736264"></polygon>
                    </g>
                    <polygon id="Fill-13" fill="#4D4C4D" points="182.16929 11.7576273 178.630001 7.37380909 178.614853 7.39126364 172.605662 0 165.503165 0 175.064136 11.7600818 165.230769 24 172.332468 24 178.614853 16.2224455 184.898035 24 192 24 182.165836 11.7600818"></polygon>
                </g>
            </g>
        </g>
    </g>
</svg>